<svg width="700" height="400" xmlns="http://www.w3.org/2000/svg"><g><path d="M-67.15589623898268,-99.95324609801173L-84.90110350772738,-17.972534354776144L-12.064638584852219,-80.43003275990486Z" fill="#fffffa" stroke="#fffffa"></path><path d="M-67.15589623898268,-99.95324609801173L-12.064638584852219,-80.43003275990486L93.8026949390769,-130.48597725108266Z" fill="#ffffeb" stroke="#ffffeb"></path><path d="M-12.064638584852219,-80.43003275990486L-84.90110350772738,-17.972534354776144L-16.82884953916073,-5.414507277309895Z" fill="#fffff6" stroke="#fffff6"></path><path d="M-12.064638584852219,-80.43003275990486L-16.82884953916073,-5.414507277309895L117.45187006890774,14.906068835407495Z" fill="#fcfee5" stroke="#fcfee5"></path><path d="M-12.064638584852219,-80.43003275990486L117.45187006890774,14.906068835407495L93.8026949390769,-130.48597725108266Z" fill="#f8fcdb" stroke="#f8fcdb"></path><path d="M93.8026949390769,-130.48597725108266L117.45187006890774,14.906068835407495L193.4638087078929,7.170866597443819Z" fill="#e8f6d9" stroke="#e8f6d9"></path><path d="M93.8026949390769,-130.48597725108266L193.4638087078929,7.170866597443819L239.36854597181082,-91.80880626663566Z" fill="#daf1db" stroke="#daf1db"></path><path d="M93.8026949390769,-130.48597725108266L239.36854597181082,-91.80880626663566L506.8685130029917,-105.23362075909972Z" fill="#addfe0" stroke="#addfe0"></path><path d="M93.8026949390769,-130.48597725108266L506.8685130029917,-105.23362075909972L565.3339552879333,-115.7924235984683Z" fill="#8ec8e0" stroke="#8ec8e0"></path><path d="M93.8026949390769,-130.48597725108266L565.3339552879333,-115.7924235984683L802.2697810456157,-139.10854768007994Z" fill="#91a9d1" stroke="#91a9d1"></path><path d="M239.36854597181082,-91.80880626663566L193.4638087078929,7.170866597443819L294.23539450392127,22.347524501383305Z" fill="#bce5dd" stroke="#bce5dd"></path><path d="M239.36854597181082,-91.80880626663566L294.23539450392127,22.347524501383305L314.7740903310478,-60.4617689922452Z" fill="#acdfe0" stroke="#acdfe0"></path><path d="M239.36854597181082,-91.80880626663566L314.7740903310478,-60.4617689922452L401.33225180208683,-62.07687193527818Z" fill="#9fd9e2" stroke="#9fd9e2"></path><path d="M239.36854597181082,-91.80880626663566L401.33225180208683,-62.07687193527818L506.8685130029917,-105.23362075909972Z" fill="#90cae0" stroke="#90cae0"></path><path d="M314.7740903310478,-60.4617689922452L294.23539450392127,22.347524501383305L363.80633644759655,7.2065891325473785Z" fill="#9dd6de" stroke="#9dd6de"></path><path d="M314.7740903310478,-60.4617689922452L363.80633644759655,7.2065891325473785L401.33225180208683,-62.07687193527818Z" fill="#95cfe0" stroke="#95cfe0"></path><path d="M401.33225180208683,-62.07687193527818L363.80633644759655,7.2065891325473785L492.8375926427543,2.0924878492951393Z" fill="#8fbeda" stroke="#8fbeda"></path><path d="M401.33225180208683,-62.07687193527818L492.8375926427543,2.0924878492951393L506.8685130029917,-105.23362075909972Z" fill="#91afd4" stroke="#91afd4"></path><path d="M506.8685130029917,-105.23362075909972L492.8375926427543,2.0924878492951393L601.4829997904599,-28.890544269233942Z" fill="#929dcb" stroke="#929dcb"></path><path d="M506.8685130029917,-105.23362075909972L601.4829997904599,-28.890544269233942L565.3339552879333,-115.7924235984683Z" fill="#9098c5" stroke="#9098c5"></path><path d="M565.3339552879333,-115.7924235984683L601.4829997904599,-28.890544269233942L667.647511921823,-89.04084714129567Z" fill="#8690b0" stroke="#8690b0"></path><path d="M565.3339552879333,-115.7924235984683L667.647511921823,-89.04084714129567L802.2697810456157,-139.10854768007994Z" fill="#808696" stroke="#808696"></path><path d="M667.647511921823,-89.04084714129567L601.4829997904599,-28.890544269233942L695.3315726667643,-37.001595348119736Z" fill="#80899f" stroke="#80899f"></path><path d="M667.647511921823,-89.04084714129567L695.3315726667643,-37.001595348119736L802.2697810456157,-139.10854768007994Z" fill="#808085" stroke="#808085"></path><path d="M802.2697810456157,-139.10854768007994L695.3315726667643,-37.001595348119736L833.1623861379921,-36.86214126646519Z" fill="#808080" stroke="#808080"></path><path d="M-84.90110350772738,-17.972534354776144L-123.73321250081062,286.6944001801312L-73.41655230149627,96.6375133022666Z" fill="#fdd4dc" stroke="#fdd4dc"></path><path d="M-84.90110350772738,-17.972534354776144L-73.41655230149627,96.6375133022666L-16.82884953916073,-5.414507277309895Z" fill="#fff5ef" stroke="#fff5ef"></path><path d="M-16.82884953916073,-5.414507277309895L-73.41655230149627,96.6375133022666L5.787731520831585,102.52581035718322Z" fill="#feeadc" stroke="#feeadc"></path><path d="M-16.82884953916073,-5.414507277309895L5.787731520831585,102.52581035718322L117.45187006890774,14.906068835407495Z" fill="#faf0d4" stroke="#faf0d4"></path><path d="M117.45187006890774,14.906068835407495L5.787731520831585,102.52581035718322L103.69136458262801,102.61741280555725Z" fill="#f5e3be" stroke="#f5e3be"></path><path d="M117.45187006890774,14.906068835407495L103.69136458262801,102.61741280555725L196.0497128032148,67.65794444829226Z" fill="#e6e1c3" stroke="#e6e1c3"></path><path d="M117.45187006890774,14.906068835407495L196.0497128032148,67.65794444829226L193.4638087078929,7.170866597443819Z" fill="#dde6cd" stroke="#dde6cd"></path><path d="M193.4638087078929,7.170866597443819L196.0497128032148,67.65794444829226L294.23539450392127,22.347524501383305Z" fill="#c1dbcf" stroke="#c1dbcf"></path><path d="M294.23539450392127,22.347524501383305L196.0497128032148,67.65794444829226L275.01452185213566,82.50070868059993Z" fill="#b6d0c9" stroke="#b6d0c9"></path><path d="M294.23539450392127,22.347524501383305L275.01452185213566,82.50070868059993L386.6868908330798,95.73279343545437Z" fill="#9dc2c9" stroke="#9dc2c9"></path><path d="M294.23539450392127,22.347524501383305L386.6868908330798,95.73279343545437L363.80633644759655,7.2065891325473785Z" fill="#97c3d0" stroke="#97c3d0"></path><path d="M363.80633644759655,7.2065891325473785L386.6868908330798,95.73279343545437L492.8375926427543,2.0924878492951393Z" fill="#8eb3cd" stroke="#8eb3cd"></path><path d="M492.8375926427543,2.0924878492951393L386.6868908330798,95.73279343545437L525.9853740036488,135.83081299439073Z" fill="#8f95b8" stroke="#8f95b8"></path><path d="M492.8375926427543,2.0924878492951393L525.9853740036488,135.83081299439073L621.4155837520957,73.69026685133576Z" fill="#9082af" stroke="#9082af"></path><path d="M492.8375926427543,2.0924878492951393L621.4155837520957,73.69026685133576L601.4829997904599,-28.890544269233942Z" fill="#8d8eb5" stroke="#8d8eb5"></path><path d="M601.4829997904599,-28.890544269233942L621.4155837520957,73.69026685133576L677.8853399865329,67.67868572846055Z" fill="#817f98" stroke="#817f98"></path><path d="M601.4829997904599,-28.890544269233942L677.8853399865329,67.67868572846055L695.3315726667643,-37.001595348119736Z" fill="#808598" stroke="#808598"></path><path d="M695.3315726667643,-37.001595348119736L677.8853399865329,67.67868572846055L833.1623861379921,-36.86214126646519Z" fill="#807c7b" stroke="#807c7b"></path><path d="M833.1623861379921,-36.86214126646519L677.8853399865329,67.67868572846055L829.1498075611889,104.92202596738935Z" fill="#7f706e" stroke="#7f706e"></path><path d="M833.1623861379921,-36.86214126646519L829.1498075611889,104.92202596738935L833.3362357132137,336.99173917993903Z" fill="#7d4f5a" stroke="#7d4f5a"></path><path d="M-73.41655230149627,96.6375133022666L-123.73321250081062,286.6944001801312L-63.29792141914368,221.96052365005016Z" fill="#f4a6ce" stroke="#f4a6ce"></path><path d="M-73.41655230149627,96.6375133022666L-63.29792141914368,221.96052365005016L5.787731520831585,102.52581035718322Z" fill="#fdcbd1" stroke="#fdcbd1"></path><path d="M5.787731520831585,102.52581035718322L-63.29792141914368,221.96052365005016L24.674494192004204,206.5979941561818Z" fill="#fbb4c0" stroke="#fbb4c0"></path><path d="M5.787731520831585,102.52581035718322L24.674494192004204,206.5979941561818L103.69136458262801,102.61741280555725Z" fill="#f8cbbb" stroke="#f8cbbb"></path><path d="M103.69136458262801,102.61741280555725L24.674494192004204,206.5979941561818L121.46714515984058,222.38800218328834Z" fill="#f1b0a9" stroke="#f1b0a9"></path><path d="M103.69136458262801,102.61741280555725L121.46714515984058,222.38800218328834L187.4939974397421,173.3661811426282Z" fill="#e4b1ad" stroke="#e4b1ad"></path><path d="M103.69136458262801,102.61741280555725L187.4939974397421,173.3661811426282L196.0497128032148,67.65794444829226Z" fill="#decbb8" stroke="#decbb8"></path><path d="M196.0497128032148,67.65794444829226L187.4939974397421,173.3661811426282L275.01452185213566,82.50070868059993Z" fill="#c4c4bb" stroke="#c4c4bb"></path><path d="M275.01452185213566,82.50070868059993L187.4939974397421,173.3661811426282L335.0550644658506,202.49259922653437Z" fill="#afa5b6" stroke="#afa5b6"></path><path d="M275.01452185213566,82.50070868059993L335.0550644658506,202.49259922653437L386.6868908330798,95.73279343545437Z" fill="#99a8bd" stroke="#99a8bd"></path><path d="M386.6868908330798,95.73279343545437L335.0550644658506,202.49259922653437L427.285890430212,233.5072997584939Z" fill="#8c7fb1" stroke="#8c7fb1"></path><path d="M386.6868908330798,95.73279343545437L427.285890430212,233.5072997584939L473.6344730295241,195.18462661653757Z" fill="#8c72ab" stroke="#8c72ab"></path><path d="M386.6868908330798,95.73279343545437L473.6344730295241,195.18462661653757L525.9853740036488,135.83081299439073Z" fill="#8e7bad" stroke="#8e7bad"></path><path d="M525.9853740036488,135.83081299439073L473.6344730295241,195.18462661653757L606.9936173036695,160.35858133807778Z" fill="#8f599f" stroke="#8f599f"></path><path d="M525.9853740036488,135.83081299439073L606.9936173036695,160.35858133807778L621.4155837520957,73.69026685133576Z" fill="#886896" stroke="#886896"></path><path d="M621.4155837520957,73.69026685133576L606.9936173036695,160.35858133807778L677.8853399865329,67.67868572846055Z" fill="#7f6a86" stroke="#7f6a86"></path><path d="M677.8853399865329,67.67868572846055L606.9936173036695,160.35858133807778L728.7349139340222,218.87309866026044Z" fill="#7d4e70" stroke="#7d4e70"></path><path d="M677.8853399865329,67.67868572846055L728.7349139340222,218.87309866026044L788.5057113319635,161.67845597490668Z" fill="#7d4659" stroke="#7d4659"></path><path d="M677.8853399865329,67.67868572846055L788.5057113319635,161.67845597490668L829.1498075611889,104.92202596738935Z" fill="#7e595d" stroke="#7e595d"></path><path d="M829.1498075611889,104.92202596738935L788.5057113319635,161.67845597490668L833.3362357132137,336.99173917993903Z" fill="#75274e" stroke="#75274e"></path><path d="M-63.29792141914368,221.96052365005016L-123.73321250081062,286.6944001801312L-9.86448634415865,293.3993497490883Z" fill="#d680bd" stroke="#d680bd"></path><path d="M-63.29792141914368,221.96052365005016L-9.86448634415865,293.3993497490883L24.674494192004204,206.5979941561818Z" fill="#e58fb7" stroke="#e58fb7"></path><path d="M24.674494192004204,206.5979941561818L-9.86448634415865,293.3993497490883L118.05111721158028,306.7771235667169Z" fill="#d07ea0" stroke="#d07ea0"></path><path d="M24.674494192004204,206.5979941561818L118.05111721158028,306.7771235667169L121.46714515984058,222.38800218328834Z" fill="#d7889e" stroke="#d7889e"></path><path d="M121.46714515984058,222.38800218328834L118.05111721158028,306.7771235667169L196.28175815567374,289.24604415893555Z" fill="#ba7699" stroke="#ba7699"></path><path d="M121.46714515984058,222.38800218328834L196.28175815567374,289.24604415893555L187.4939974397421,173.3661811426282Z" fill="#c989a5" stroke="#c989a5"></path><path d="M187.4939974397421,173.3661811426282L196.28175815567374,289.24604415893555L275.0656049326062,265.3685322217643Z" fill="#aa78a3" stroke="#aa78a3"></path><path d="M187.4939974397421,173.3661811426282L275.0656049326062,265.3685322217643L335.0550644658506,202.49259922653437Z" fill="#a481ac" stroke="#a481ac"></path><path d="M335.0550644658506,202.49259922653437L275.0656049326062,265.3685322217643L363.27944887802005,335.16665134578943Z" fill="#7459a1" stroke="#7459a1"></path><path d="M335.0550644658506,202.49259922653437L363.27944887802005,335.16665134578943L427.285890430212,233.5072997584939Z" fill="#6e52a2" stroke="#6e52a2"></path><path d="M427.285890430212,233.5072997584939L363.27944887802005,335.16665134578943L428.44755908474326,380.4790733382106Z" fill="#494498" stroke="#494498"></path><path d="M427.285890430212,233.5072997584939L428.44755908474326,380.4790733382106L529.5167273469269,317.8182077035308Z" fill="#4f3191" stroke="#4f3191"></path><path d="M427.285890430212,233.5072997584939L529.5167273469269,317.8182077035308L473.6344730295241,195.18462661653757Z" fill="#723797" stroke="#723797"></path><path d="M473.6344730295241,195.18462661653757L529.5167273469269,317.8182077035308L596.4195397309959,310.58709494769573Z" fill="#651e8a" stroke="#651e8a"></path><path d="M473.6344730295241,195.18462661653757L596.4195397309959,310.58709494769573L606.9936173036695,160.35858133807778Z" fill="#7f3290" stroke="#7f3290"></path><path d="M606.9936173036695,160.35858133807778L596.4195397309959,310.58709494769573L706.9907340593636,277.73447047919035Z" fill="#62176b" stroke="#62176b"></path><path d="M606.9936173036695,160.35858133807778L706.9907340593636,277.73447047919035L728.7349139340222,218.87309866026044Z" fill="#702262" stroke="#702262"></path><path d="M728.7349139340222,218.87309866026044L706.9907340593636,277.73447047919035L833.3362357132137,336.99173917993903Z" fill="#51013e" stroke="#51013e"></path><path d="M728.7349139340222,218.87309866026044L833.3362357132137,336.99173917993903L788.5057113319635,161.67845597490668Z" fill="#661147" stroke="#661147"></path><path d="M-123.73321250081062,286.6944001801312L-113.08822263032198,466.7764808796346L-63.61615017056465,369.06016094610095Z" fill="#9a80b2" stroke="#9a80b2"></path><path d="M-123.73321250081062,286.6944001801312L-63.61615017056465,369.06016094610095L-9.86448634415865,293.3993497490883Z" fill="#ba80b8" stroke="#ba80b8"></path><path d="M-9.86448634415865,293.3993497490883L-63.61615017056465,369.06016094610095L15.748422835022211,411.04760544374585Z" fill="#a380a6" stroke="#a380a6"></path><path d="M-9.86448634415865,293.3993497490883L15.748422835022211,411.04760544374585L64.01361482217908,413.7539879605174Z" fill="#987f99" stroke="#987f99"></path><path d="M-9.86448634415865,293.3993497490883L64.01361482217908,413.7539879605174L118.05111721158028,306.7771235667169Z" fill="#a77d95" stroke="#a77d95"></path><path d="M118.05111721158028,306.7771235667169L64.01361482217908,413.7539879605174L161.7870375327766,368.5319927893579Z" fill="#8e798d" stroke="#8e798d"></path><path d="M118.05111721158028,306.7771235667169L161.7870375327766,368.5319927893579L196.28175815567374,289.24604415893555Z" fill="#9a7594" stroke="#9a7594"></path><path d="M196.28175815567374,289.24604415893555L161.7870375327766,368.5319927893579L316.4906129986048,372.891904450953Z" fill="#6f6894" stroke="#6f6894"></path><path d="M196.28175815567374,289.24604415893555L316.4906129986048,372.891904450953L275.0656049326062,265.3685322217643Z" fill="#72639b" stroke="#72639b"></path><path d="M275.0656049326062,265.3685322217643L316.4906129986048,372.891904450953L363.27944887802005,335.16665134578943Z" fill="#555a9c" stroke="#555a9c"></path><path d="M363.27944887802005,335.16665134578943L316.4906129986048,372.891904450953L428.44755908474326,380.4790733382106Z" fill="#344d95" stroke="#344d95"></path><path d="M529.5167273469269,317.8182077035308L428.44755908474326,380.4790733382106L523.0010777153075,373.63192258402705Z" fill="#352885" stroke="#352885"></path><path d="M529.5167273469269,317.8182077035308L523.0010777153075,373.63192258402705L596.4195397309959,310.58709494769573Z" fill="#421980" stroke="#421980"></path><path d="M596.4195397309959,310.58709494769573L523.0010777153075,373.63192258402705L627.6430210843682,401.0917717963457Z" fill="#2d1570" stroke="#2d1570"></path><path d="M596.4195397309959,310.58709494769573L627.6430210843682,401.0917717963457L660.3420223481953,377.11263531818986Z" fill="#240e5e" stroke="#240e5e"></path><path d="M596.4195397309959,310.58709494769573L660.3420223481953,377.11263531818986L706.9907340593636,277.73447047919035Z" fill="#370a5a" stroke="#370a5a"></path><path d="M706.9907340593636,277.73447047919035L660.3420223481953,377.11263531818986L804.3174514360726,398.46294390037656Z" fill="#27003b" stroke="#27003b"></path><path d="M706.9907340593636,277.73447047919035L804.3174514360726,398.46294390037656L833.3362357132137,336.99173917993903Z" fill="#2f0038" stroke="#2f0038"></path><path d="M833.3362357132137,336.99173917993903L804.3174514360726,398.46294390037656L762.8104038536549,533.2755957916379Z" fill="#00002b" stroke="#00002b"></path><path d="M-63.61615017056465,369.06016094610095L-113.08822263032198,466.7764808796346L15.748422835022211,411.04760544374585Z" fill="#8380a7" stroke="#8380a7"></path><path d="M15.748422835022211,411.04760544374585L-113.08822263032198,466.7764808796346L27.60014533996582,518.473226223141Z" fill="#808098" stroke="#808098"></path><path d="M15.748422835022211,411.04760544374585L27.60014533996582,518.473226223141L64.01361482217908,413.7539879605174Z" fill="#7c7e8b" stroke="#7c7e8b"></path><path d="M64.01361482217908,413.7539879605174L27.60014533996582,518.473226223141L74.15754558518529,517.9213307052851Z" fill="#797d81" stroke="#797d81"></path><path d="M64.01361482217908,413.7539879605174L74.15754558518529,517.9213307052851L161.7870375327766,368.5319927893579Z" fill="#717a83" stroke="#717a83"></path><path d="M161.7870375327766,368.5319927893579L74.15754558518529,517.9213307052851L236.9859836809337,500.5559042096138Z" fill="#637480" stroke="#637480"></path><path d="M161.7870375327766,368.5319927893579L236.9859836809337,500.5559042096138L316.4906129986048,372.891904450953Z" fill="#42668b" stroke="#42668b"></path><path d="M316.4906129986048,372.891904450953L236.9859836809337,500.5559042096138L310.6532888673246,534.969124160707Z" fill="#2a5f85" stroke="#2a5f85"></path><path d="M316.4906129986048,372.891904450953L310.6532888673246,534.969124160707L429.1688929311931,480.5796269699931Z" fill="#175187" stroke="#175187"></path><path d="M316.4906129986048,372.891904450953L429.1688929311931,480.5796269699931L428.44755908474326,380.4790733382106Z" fill="#15488d" stroke="#15488d"></path><path d="M428.44755908474326,380.4790733382106L429.1688929311931,480.5796269699931L523.0010777153075,373.63192258402705Z" fill="#173182" stroke="#173182"></path><path d="M523.0010777153075,373.63192258402705L429.1688929311931,480.5796269699931L512.2871790267527,534.703701287508Z" fill="#122977" stroke="#122977"></path><path d="M523.0010777153075,373.63192258402705L512.2871790267527,534.703701287508L589.2424811981618,498.86060025542974Z" fill="#131b6f" stroke="#131b6f"></path><path d="M523.0010777153075,373.63192258402705L589.2424811981618,498.86060025542974L627.6430210843682,401.0917717963457Z" fill="#0c1568" stroke="#0c1568"></path><path d="M627.6430210843682,401.0917717963457L589.2424811981618,498.86060025542974L674.4354432448745,478.19983119145036Z" fill="#030e4f" stroke="#030e4f"></path><path d="M627.6430210843682,401.0917717963457L674.4354432448745,478.19983119145036L660.3420223481953,377.11263531818986Z" fill="#020a4c" stroke="#020a4c"></path><path d="M660.3420223481953,377.11263531818986L674.4354432448745,478.19983119145036L804.3174514360726,398.46294390037656Z" fill="#020135" stroke="#020135"></path><path d="M804.3174514360726,398.46294390037656L674.4354432448745,478.19983119145036L762.8104038536549,533.2755957916379Z" fill="#000025" stroke="#000025"></path><path d="M27.60014533996582,518.473226223141L310.6532888673246,534.969124160707L74.15754558518529,517.9213307052851Z" fill="#687676" stroke="#687676"></path><path d="M74.15754558518529,517.9213307052851L310.6532888673246,534.969124160707L236.9859836809337,500.5559042096138Z" fill="#4c6b7a" stroke="#4c6b7a"></path><path d="M310.6532888673246,534.969124160707L512.2871790267527,534.703701287508L429.1688929311931,480.5796269699931Z" fill="#103f79" stroke="#103f79"></path><path d="M512.2871790267527,534.703701287508L762.8104038536549,533.2755957916379L589.2424811981618,498.86060025542974Z" fill="#040f49" stroke="#040f49"></path><path d="M589.2424811981618,498.86060025542974L762.8104038536549,533.2755957916379L674.4354432448745,478.19983119145036Z" fill="#000737" stroke="#000737"></path></g><filter id="noise"><feTurbulence type="fractalNoise" in="fillPaint" fill="#F00" baseFrequency="0.7" numOctaves="10" stitchTiles="stitch"></feTurbulence><feComponentTransfer><feFuncR type="linear" slope="2" intercept="-.5"></feFuncR><feFuncG type="linear" slope="2" intercept="-.5"></feFuncG><feFuncB type="linear" slope="2" intercept="-.5"></feFuncB></feComponentTransfer><feColorMatrix type="matrix" values="0.3333 0.3333 0.3333 0 0 
 0.3333 0.3333 0.3333 0 0 
 0.3333 0.3333 0.3333 0 0 
 0 0 0 1 0"></feColorMatrix></filter><rect opacity="0.1" width="100%" height="100%" filter="url(#noise)"></rect></svg>