<svg width="700" height="400" xmlns="http://www.w3.org/2000/svg"><g><path d="M-193.1642151903361,-215.37854350171983L-216.25012441538274,618.4694525692612L-190.87199482135475,193.15578332170844Z" fill="#ffdb99" stroke="#ffdb99"></path><path d="M-193.1642151903361,-215.37854350171983L-190.87199482135475,193.15578332170844L-182.58156350813806,5.843887273222208Z" fill="#ffffff" stroke="#ffffff"></path><path d="M-193.1642151903361,-215.37854350171983L-182.58156350813806,5.843887273222208L-13.501654183492064,-204.36161005869508Z" fill="#ffffff" stroke="#ffffff"></path><path d="M-193.1642151903361,-215.37854350171983L-13.501654183492064,-204.36161005869508L414.10981117747724,-206.4284795988351Z" fill="#fff8dc" stroke="#fff8dc"></path><path d="M-193.1642151903361,-215.37854350171983L414.10981117747724,-206.4284795988351L615.4451144114137,-210.71258602663875Z" fill="#ffd9a9" stroke="#ffd9a9"></path><path d="M-193.1642151903361,-215.37854350171983L615.4451144114137,-210.71258602663875L1008.9545636903495,-209.81495977379382Z" fill="#edb086" stroke="#edb086"></path><path d="M-13.501654183492064,-204.36161005869508L-182.58156350813806,5.843887273222208L-11.184419533237815,-10.677579427137971Z" fill="#fffff8" stroke="#fffff8"></path><path d="M-13.501654183492064,-204.36161005869508L-11.184419533237815,-10.677579427137971L211.64878863841295,-181.511116810143Z" fill="#fff8dd" stroke="#fff8dd"></path><path d="M-13.501654183492064,-204.36161005869508L211.64878863841295,-181.511116810143L414.10981117747724,-206.4284795988351Z" fill="#ffe7be" stroke="#ffe7be"></path><path d="M211.64878863841295,-181.511116810143L-11.184419533237815,-10.677579427137971L201.52639505453408,4.984489856287837Z" fill="#fff1cf" stroke="#fff1cf"></path><path d="M211.64878863841295,-181.511116810143L201.52639505453408,4.984489856287837L401.0253439284861,12.776442561298609Z" fill="#ffdbab" stroke="#ffdbab"></path><path d="M211.64878863841295,-181.511116810143L401.0253439284861,12.776442561298609L414.10981117747724,-206.4284795988351Z" fill="#ffce96" stroke="#ffce96"></path><path d="M414.10981117747724,-206.4284795988351L401.0253439284861,12.776442561298609L619.4971390627325,-0.895554693415761Z" fill="#ecb086" stroke="#ecb086"></path><path d="M414.10981117747724,-206.4284795988351L619.4971390627325,-0.895554693415761L615.4451144114137,-210.71258602663875Z" fill="#e2a080" stroke="#e2a080"></path><path d="M615.4451144114137,-210.71258602663875L619.4971390627325,-0.895554693415761L798.4763708617538,-3.5993179120123386Z" fill="#d08480" stroke="#d08480"></path><path d="M615.4451144114137,-210.71258602663875L798.4763708617538,-3.5993179120123386L813.2328375522047,-201.3654456846416Z" fill="#c78080" stroke="#c78080"></path><path d="M615.4451144114137,-210.71258602663875L813.2328375522047,-201.3654456846416L1008.9545636903495,-209.81495977379382Z" fill="#bd8080" stroke="#bd8080"></path><path d="M813.2328375522047,-201.3654456846416L798.4763708617538,-3.5993179120123386L985.0286272820085,-17.39121027290821Z" fill="#b58080" stroke="#b58080"></path><path d="M813.2328375522047,-201.3654456846416L985.0286272820085,-17.39121027290821L1008.9545636903495,-209.81495977379382Z" fill="#ab8080" stroke="#ab8080"></path><path d="M1008.9545636903495,-209.81495977379382L985.0286272820085,-17.39121027290821L1019.6969158016145,401.06038843281567Z" fill="#a18066" stroke="#a18066"></path><path d="M-182.58156350813806,5.843887273222208L-190.87199482135475,193.15578332170844L-11.184419533237815,-10.677579427137971Z" fill="#ffffe4" stroke="#ffffe4"></path><path d="M-11.184419533237815,-10.677579427137971L-190.87199482135475,193.15578332170844L18.894210197031498,214.51493177562952Z" fill="#fff3b7" stroke="#fff3b7"></path><path d="M-11.184419533237815,-10.677579427137971L18.894210197031498,214.51493177562952L201.52639505453408,4.984489856287837Z" fill="#fff8be" stroke="#fff8be"></path><path d="M201.52639505453408,4.984489856287837L18.894210197031498,214.51493177562952L199.24569566734135,184.57243566401303Z" fill="#ffe48e" stroke="#ffe48e"></path><path d="M201.52639505453408,4.984489856287837L199.24569566734135,184.57243566401303L401.0253439284861,12.776442561298609Z" fill="#ffdb8f" stroke="#ffdb8f"></path><path d="M401.0253439284861,12.776442561298609L199.24569566734135,184.57243566401303L412.14547608047724,213.9081183169037Z" fill="#ffc156" stroke="#ffc156"></path><path d="M401.0253439284861,12.776442561298609L412.14547608047724,213.9081183169037L591.3275490049273,217.1295210905373Z" fill="#eea13f" stroke="#eea13f"></path><path d="M401.0253439284861,12.776442561298609L591.3275490049273,217.1295210905373L619.4971390627325,-0.895554693415761Z" fill="#e4a35f" stroke="#e4a35f"></path><path d="M619.4971390627325,-0.895554693415761L591.3275490049273,217.1295210905373L810.8153863530606,189.54604292288423Z" fill="#d07840" stroke="#d07840"></path><path d="M619.4971390627325,-0.895554693415761L810.8153863530606,189.54604292288423L798.4763708617538,-3.5993179120123386Z" fill="#c78065" stroke="#c78065"></path><path d="M798.4763708617538,-3.5993179120123386L810.8153863530606,189.54604292288423L985.0286272820085,-17.39121027290821Z" fill="#b58067" stroke="#b58067"></path><path d="M985.0286272820085,-17.39121027290821L810.8153863530606,189.54604292288423L980.7940705306828,212.65551762655377Z" fill="#ad7544" stroke="#ad7544"></path><path d="M985.0286272820085,-17.39121027290821L980.7940705306828,212.65551762655377L1019.6969158016145,401.06038843281567Z" fill="#a35c19" stroke="#a35c19"></path><path d="M-190.87199482135475,193.15578332170844L-216.25012441538274,618.4694525692612L-194.42862778902054,413.2701144553721Z" fill="#f3808a" stroke="#f3808a"></path><path d="M-190.87199482135475,193.15578332170844L-194.42862778902054,413.2701144553721L3.5046580992639065,409.53866169787943Z" fill="#f79b8f" stroke="#f79b8f"></path><path d="M-190.87199482135475,193.15578332170844L3.5046580992639065,409.53866169787943L18.894210197031498,214.51493177562952Z" fill="#fbb989" stroke="#fbb989"></path><path d="M18.894210197031498,214.51493177562952L3.5046580992639065,409.53866169787943L184.92042826488614,412.1992926672101Z" fill="#f7906b" stroke="#f7906b"></path><path d="M18.894210197031498,214.51493177562952L184.92042826488614,412.1992926672101L199.24569566734135,184.57243566401303Z" fill="#fbac63" stroke="#fbac63"></path><path d="M199.24569566734135,184.57243566401303L184.92042826488614,412.1992926672101L395.46528400853276,382.5287138018757Z" fill="#f77e3e" stroke="#f77e3e"></path><path d="M199.24569566734135,184.57243566401303L395.46528400853276,382.5287138018757L412.14547608047724,213.9081183169037Z" fill="#fb8e2d" stroke="#fb8e2d"></path><path d="M412.14547608047724,213.9081183169037L395.46528400853276,382.5287138018757L591.3275490049273,217.1295210905373Z" fill="#ea6e1b" stroke="#ea6e1b"></path><path d="M591.3275490049273,217.1295210905373L395.46528400853276,382.5287138018757L591.0012429952621,401.55020762234926Z" fill="#de4410" stroke="#de4410"></path><path d="M591.3275490049273,217.1295210905373L591.0012429952621,401.55020762234926L800.4179772455245,394.629064463079Z" fill="#ca240f" stroke="#ca240f"></path><path d="M591.3275490049273,217.1295210905373L800.4179772455245,394.629064463079L810.8153863530606,189.54604292288423Z" fill="#c43c14" stroke="#c43c14"></path><path d="M810.8153863530606,189.54604292288423L800.4179772455245,394.629064463079L980.7940705306828,212.65551762655377Z" fill="#b13d14" stroke="#b13d14"></path><path d="M980.7940705306828,212.65551762655377L800.4179772455245,394.629064463079L1019.6969158016145,401.06038843281567Z" fill="#a31d0f" stroke="#a31d0f"></path><path d="M-194.42862778902054,413.2701144553721L-216.25012441538274,618.4694525692612L9.436569828540087,595.3963035810739Z" fill="#eb8080" stroke="#eb8080"></path><path d="M-194.42862778902054,413.2701144553721L9.436569828540087,595.3963035810739L3.5046580992639065,409.53866169787943Z" fill="#ef807c" stroke="#ef807c"></path><path d="M3.5046580992639065,409.53866169787943L9.436569828540087,595.3963035810739L184.92042826488614,412.1992926672101Z" fill="#ef7963" stroke="#ef7963"></path><path d="M184.92042826488614,412.1992926672101L9.436569828540087,595.3963035810739L201.47473407909274,589.8300167638808Z" fill="#eb7151" stroke="#eb7151"></path><path d="M184.92042826488614,412.1992926672101L201.47473407909274,589.8300167638808L404.3138865195215,580.667225625366Z" fill="#eb5d2f" stroke="#eb5d2f"></path><path d="M184.92042826488614,412.1992926672101L404.3138865195215,580.667225625366L395.46528400853276,382.5287138018757Z" fill="#ef5122" stroke="#ef5122"></path><path d="M395.46528400853276,382.5287138018757L404.3138865195215,580.667225625366L591.0012429952621,401.55020762234926Z" fill="#df340f" stroke="#df340f"></path><path d="M591.0012429952621,401.55020762234926L404.3138865195215,580.667225625366L616.9580233749002,593.8627427164465Z" fill="#d02402" stroke="#d02402"></path><path d="M591.0012429952621,401.55020762234926L616.9580233749002,593.8627427164465L800.4179772455245,394.629064463079Z" fill="#c10606" stroke="#c10606"></path><path d="M800.4179772455245,394.629064463079L616.9580233749002,593.8627427164465L816.1983837094158,592.1137625910342Z" fill="#b30002" stroke="#b30002"></path><path d="M800.4179772455245,394.629064463079L816.1983837094158,592.1137625910342L1019.6969158016145,401.06038843281567Z" fill="#a30006" stroke="#a30006"></path><path d="M1019.6969158016145,401.06038843281567L816.1983837094158,592.1137625910342L982.7732389420271,611.2484424281865Z" fill="#970001" stroke="#970001"></path><path d="M-216.25012441538274,618.4694525692612L982.7732389420271,611.2484424281865L616.9580233749002,593.8627427164465Z" fill="#d63408" stroke="#d63408"></path><path d="M-216.25012441538274,618.4694525692612L616.9580233749002,593.8627427164465L201.47473407909274,589.8300167638808Z" fill="#e76840" stroke="#e76840"></path><path d="M-216.25012441538274,618.4694525692612L201.47473407909274,589.8300167638808L9.436569828540087,595.3963035810739Z" fill="#e7806b" stroke="#e7806b"></path><path d="M201.47473407909274,589.8300167638808L616.9580233749002,593.8627427164465L404.3138865195215,580.667225625366Z" fill="#df400e" stroke="#df400e"></path><path d="M616.9580233749002,593.8627427164465L982.7732389420271,611.2484424281865L816.1983837094158,592.1137625910342Z" fill="#a60000" stroke="#a60000"></path></g><filter id="noise"><feTurbulence type="fractalNoise" in="fillPaint" fill="#F00" baseFrequency="0.7" numOctaves="10" stitchTiles="stitch"></feTurbulence><feComponentTransfer><feFuncR type="linear" slope="2" intercept="-.5"></feFuncR><feFuncG type="linear" slope="2" intercept="-.5"></feFuncG><feFuncB type="linear" slope="2" intercept="-.5"></feFuncB></feComponentTransfer><feColorMatrix type="matrix" values="0.3333 0.3333 0.3333 0 0 
 0.3333 0.3333 0.3333 0 0 
 0.3333 0.3333 0.3333 0 0 
 0 0 0 1 0"></feColorMatrix></filter><rect opacity="0.3" width="100%" height="100%" filter="url(#noise)"></rect></svg>