<svg width="700" height="400" xmlns="http://www.w3.org/2000/svg"><g><path d="M-121.67236285842955,-93.2558489665389L-106.1757039707154,511.657693779096L-112.90130876004696,159.09971704892814Z" fill="#b88d80" stroke="#b88d80"></path><path d="M-121.67236285842955,-93.2558489665389L-112.90130876004696,159.09971704892814L-112.00916111469269,105.77787983603776Z" fill="#b8641e" stroke="#b8641e"></path><path d="M-121.67236285842955,-93.2558489665389L-112.00916111469269,105.77787983603776L-73.61617590487003,-10.264920199289918Z" fill="#a74612" stroke="#a74612"></path><path d="M-121.67236285842955,-93.2558489665389L-73.61617590487003,-10.264920199289918L-30.03335339203477,-115.89649344608188Z" fill="#8c2312" stroke="#8c2312"></path><path d="M-30.03335339203477,-115.89649344608188L-73.61617590487003,-10.264920199289918L-9.160326713696122,19.179482236504555Z" fill="#a84312" stroke="#a84312"></path><path d="M-30.03335339203477,-115.89649344608188L-9.160326713696122,19.179482236504555L60.28305285796523,-100.51784231700003Z" fill="#a73e15" stroke="#a73e15"></path><path d="M-30.03335339203477,-115.89649344608188L60.28305285796523,-100.51784231700003L148.66313314251602,-95.24777769483626Z" fill="#a53c1a" stroke="#a53c1a"></path><path d="M-30.03335339203477,-115.89649344608188L148.66313314251602,-95.24777769483626L423.89430100657046,-105.49508567154408Z" fill="#b76351" stroke="#b76351"></path><path d="M-30.03335339203477,-115.89649344608188L423.89430100657046,-105.49508567154408L614.6072849091142,-123.57393537461758Z" fill="#ab778b" stroke="#ab778b"></path><path d="M-30.03335339203477,-115.89649344608188L614.6072849091142,-123.57393537461758L736.0474008210003,-125.23825383000076Z" fill="#915e7f" stroke="#915e7f"></path><path d="M60.28305285796523,-100.51784231700003L-9.160326713696122,19.179482236504555L56.29898449592292,0.9501881841570139Z" fill="#c25b18" stroke="#c25b18"></path><path d="M60.28305285796523,-100.51784231700003L56.29898449592292,0.9501881841570139L148.66313314251602,-95.24777769483626Z" fill="#be5521" stroke="#be5521"></path><path d="M148.66313314251602,-95.24777769483626L56.29898449592292,0.9501881841570139L173.7155956942588,-0.5887652970850468Z" fill="#d57534" stroke="#d57534"></path><path d="M148.66313314251602,-95.24777769483626L173.7155956942588,-0.5887652970850468L275.50948486849666,-79.78446198441088Z" fill="#ce7b5b" stroke="#ce7b5b"></path><path d="M148.66313314251602,-95.24777769483626L275.50948486849666,-79.78446198441088L423.89430100657046,-105.49508567154408Z" fill="#bc7881" stroke="#bc7881"></path><path d="M275.50948486849666,-79.78446198441088L173.7155956942588,-0.5887652970850468L245.91474072821438,34.69054177030921Z" fill="#e39c6c" stroke="#e39c6c"></path><path d="M275.50948486849666,-79.78446198441088L245.91474072821438,34.69054177030921L335.8742322474718,-75.08310667611659Z" fill="#d49683" stroke="#d49683"></path><path d="M275.50948486849666,-79.78446198441088L335.8742322474718,-75.08310667611659L423.89430100657046,-105.49508567154408Z" fill="#b6798b" stroke="#b6798b"></path><path d="M335.8742322474718,-75.08310667611659L245.91474072821438,34.69054177030921L373.54353000596166,24.147938573732972Z" fill="#e2ac8d" stroke="#e2ac8d"></path><path d="M335.8742322474718,-75.08310667611659L373.54353000596166,24.147938573732972L423.89430100657046,-105.49508567154408Z" fill="#c08688" stroke="#c08688"></path><path d="M423.89430100657046,-105.49508567154408L373.54353000596166,24.147938573732972L483.2140275500715,-26.234516574069858Z" fill="#bc8281" stroke="#bc8281"></path><path d="M423.89430100657046,-105.49508567154408L483.2140275500715,-26.234516574069858L504.48287024348974,-91.21807077527046Z" fill="#a05f7a" stroke="#a05f7a"></path><path d="M423.89430100657046,-105.49508567154408L504.48287024348974,-91.21807077527046L614.6072849091142,-123.57393537461758Z" fill="#82456f" stroke="#82456f"></path><path d="M504.48287024348974,-91.21807077527046L483.2140275500715,-26.234516574069858L597.9943505600095,21.24762061983347Z" fill="#a1626c" stroke="#a1626c"></path><path d="M504.48287024348974,-91.21807077527046L597.9943505600095,21.24762061983347L614.6072849091142,-123.57393537461758Z" fill="#843c61" stroke="#843c61"></path><path d="M614.6072849091142,-123.57393537461758L597.9943505600095,21.24762061983347L753.7517569642514,-2.212769228965044Z" fill="#7b254e" stroke="#7b254e"></path><path d="M614.6072849091142,-123.57393537461758L753.7517569642514,-2.212769228965044L736.0474008210003,-125.23825383000076Z" fill="#570643" stroke="#570643"></path><path d="M736.0474008210003,-125.23825383000076L753.7517569642514,-2.212769228965044L804.7068733088672,-116.6662183329463Z" fill="#460735" stroke="#460735"></path><path d="M804.7068733088672,-116.6662183329463L753.7517569642514,-2.212769228965044L841.6845504306257,9.498203493654728Z" fill="#5a202d" stroke="#5a202d"></path><path d="M-73.61617590487003,-10.264920199289918L-112.00916111469269,105.77787983603776L-9.160326713696122,19.179482236504555Z" fill="#c36512" stroke="#c36512"></path><path d="M-9.160326713696122,19.179482236504555L-112.00916111469269,105.77787983603776L17.533154781907797,86.42629461362958Z" fill="#cf832a" stroke="#cf832a"></path><path d="M-9.160326713696122,19.179482236504555L17.533154781907797,86.42629461362958L56.29898449592292,0.9501881841570139Z" fill="#db7b17" stroke="#db7b17"></path><path d="M56.29898449592292,0.9501881841570139L17.533154781907797,86.42629461362958L103.9193775113672,57.23719819262624Z" fill="#ea8c1e" stroke="#ea8c1e"></path><path d="M56.29898449592292,0.9501881841570139L103.9193775113672,57.23719819262624L173.7155956942588,-0.5887652970850468Z" fill="#ea8c2d" stroke="#ea8c2d"></path><path d="M173.7155956942588,-0.5887652970850468L103.9193775113672,57.23719819262624L187.8045302554965,125.88139489665627Z" fill="#feb653" stroke="#feb653"></path><path d="M173.7155956942588,-0.5887652970850468L187.8045302554965,125.88139489665627L238.07826045155525,73.62154887244105Z" fill="#ffc56f" stroke="#ffc56f"></path><path d="M173.7155956942588,-0.5887652970850468L238.07826045155525,73.62154887244105L245.91474072821438,34.69054177030921Z" fill="#fbb565" stroke="#fbb565"></path><path d="M245.91474072821438,34.69054177030921L238.07826045155525,73.62154887244105L362.2305272128433,96.3645506054163Z" fill="#fdd697" stroke="#fdd697"></path><path d="M245.91474072821438,34.69054177030921L362.2305272128433,96.3645506054163L373.54353000596166,24.147938573732972Z" fill="#f8cb93" stroke="#f8cb93"></path><path d="M373.54353000596166,24.147938573732972L362.2305272128433,96.3645506054163L476.9736019503325,58.929099110886455Z" fill="#e8c193" stroke="#e8c193"></path><path d="M373.54353000596166,24.147938573732972L476.9736019503325,58.929099110886455L483.2140275500715,-26.234516574069858Z" fill="#d29b7e" stroke="#d29b7e"></path><path d="M483.2140275500715,-26.234516574069858L476.9736019503325,58.929099110886455L507.43313756771386,58.666759606450796Z" fill="#cb9375" stroke="#cb9375"></path><path d="M483.2140275500715,-26.234516574069858L507.43313756771386,58.666759606450796L536.719974020496,33.82550347968936Z" fill="#c18770" stroke="#c18770"></path><path d="M483.2140275500715,-26.234516574069858L536.719974020496,33.82550347968936L597.9943505600095,21.24762061983347Z" fill="#b17669" stroke="#b17669"></path><path d="M536.719974020496,33.82550347968936L507.43313756771386,58.666759606450796L606.8300145473331,62.85760531201959Z" fill="#be8a6d" stroke="#be8a6d"></path><path d="M536.719974020496,33.82550347968936L606.8300145473331,62.85760531201959L597.9943505600095,21.24762061983347Z" fill="#b3735f" stroke="#b3735f"></path><path d="M597.9943505600095,21.24762061983347L606.8300145473331,62.85760531201959L753.7517569642514,-2.212769228965044Z" fill="#99494f" stroke="#99494f"></path><path d="M753.7517569642514,-2.212769228965044L606.8300145473331,62.85760531201959L750.785979565233,107.01318771019578Z" fill="#93564d" stroke="#93564d"></path><path d="M753.7517569642514,-2.212769228965044L750.785979565233,107.01318771019578L798.9106549993157,72.52737084031105Z" fill="#815842" stroke="#815842"></path><path d="M753.7517569642514,-2.212769228965044L798.9106549993157,72.52737084031105L841.6845504306257,9.498203493654728Z" fill="#77442d" stroke="#77442d"></path><path d="M841.6845504306257,9.498203493654728L798.9106549993157,72.52737084031105L842.72702296637,169.53760915249586Z" fill="#806a4b" stroke="#806a4b"></path><path d="M-112.00916111469269,105.77787983603776L-112.90130876004696,159.09971704892814L-21.185338268056512,195.78993168845773Z" fill="#c29675" stroke="#c29675"></path><path d="M-112.00916111469269,105.77787983603776L-21.185338268056512,195.78993168845773L17.533154781907797,86.42629461362958Z" fill="#cea068" stroke="#cea068"></path><path d="M17.533154781907797,86.42629461362958L-21.185338268056512,195.78993168845773L112.59216143935919,155.19080735184252Z" fill="#e4b679" stroke="#e4b679"></path><path d="M17.533154781907797,86.42629461362958L112.59216143935919,155.19080735184252L103.9193775113672,57.23719819262624Z" fill="#f0b351" stroke="#f0b351"></path><path d="M103.9193775113672,57.23719819262624L112.59216143935919,155.19080735184252L187.8045302554965,125.88139489665627Z" fill="#facc7d" stroke="#facc7d"></path><path d="M187.8045302554965,125.88139489665627L112.59216143935919,155.19080735184252L167.52016228996217,151.51527097821236Z" fill="#fedca3" stroke="#fedca3"></path><path d="M187.8045302554965,125.88139489665627L167.52016228996217,151.51527097821236L251.72954109683633,173.49256245419383Z" fill="#ffe8bf" stroke="#ffe8bf"></path><path d="M187.8045302554965,125.88139489665627L251.72954109683633,173.49256245419383L238.07826045155525,73.62154887244105Z" fill="#ffeaba" stroke="#ffeaba"></path><path d="M238.07826045155525,73.62154887244105L251.72954109683633,173.49256245419383L362.2305272128433,96.3645506054163Z" fill="#fcf0c8" stroke="#fcf0c8"></path><path d="M362.2305272128433,96.3645506054163L251.72954109683633,173.49256245419383L382.7629480306059,184.7231054250151Z" fill="#f7f7ef" stroke="#f7f7ef"></path><path d="M362.2305272128433,96.3645506054163L382.7629480306059,184.7231054250151L442.1743660736829,166.79408785700798Z" fill="#eaebe8" stroke="#eaebe8"></path><path d="M362.2305272128433,96.3645506054163L442.1743660736829,166.79408785700798L476.9736019503325,58.929099110886455Z" fill="#e2d7bf" stroke="#e2d7bf"></path><path d="M476.9736019503325,58.929099110886455L442.1743660736829,166.79408785700798L507.43313756771386,58.666759606450796Z" fill="#d6c3a9" stroke="#d6c3a9"></path><path d="M507.43313756771386,58.666759606450796L442.1743660736829,166.79408785700798L566.4654972329736,156.67539418302476Z" fill="#ccc5c6" stroke="#ccc5c6"></path><path d="M507.43313756771386,58.666759606450796L566.4654972329736,156.67539418302476L606.8300145473331,62.85760531201959Z" fill="#bba192" stroke="#bba192"></path><path d="M606.8300145473331,62.85760531201959L566.4654972329736,156.67539418302476L596.3534184191376,164.86479003354907Z" fill="#b3a1b2" stroke="#b3a1b2"></path><path d="M606.8300145473331,62.85760531201959L596.3534184191376,164.86479003354907L750.785979565233,107.01318771019578Z" fill="#a27c92" stroke="#a27c92"></path><path d="M750.785979565233,107.01318771019578L596.3534184191376,164.86479003354907L695.0093810074031,208.49848214909434Z" fill="#9980af" stroke="#9980af"></path><path d="M750.785979565233,107.01318771019578L695.0093810074031,208.49848214909434L842.72702296637,169.53760915249586Z" fill="#82809c" stroke="#82809c"></path><path d="M750.785979565233,107.01318771019578L842.72702296637,169.53760915249586L798.9106549993157,72.52737084031105Z" fill="#807975" stroke="#807975"></path><path d="M-112.90130876004696,159.09971704892814L-106.1757039707154,511.657693779096L-108.15966518037021,280.1242708582431Z" fill="#834d64" stroke="#834d64"></path><path d="M-112.90130876004696,159.09971704892814L-108.15966518037021,280.1242708582431L-21.185338268056512,195.78993168845773Z" fill="#c29680" stroke="#c29680"></path><path d="M-21.185338268056512,195.78993168845773L-108.15966518037021,280.1242708582431L-23.89520746283233,333.7719609271735Z" fill="#b3827c" stroke="#b3827c"></path><path d="M-21.185338268056512,195.78993168845773L-23.89520746283233,333.7719609271735L31.024021172896028,241.6718837879598Z" fill="#c79680" stroke="#c79680"></path><path d="M-21.185338268056512,195.78993168845773L31.024021172896028,241.6718837879598L112.59216143935919,155.19080735184252Z" fill="#e5b786" stroke="#e5b786"></path><path d="M112.59216143935919,155.19080735184252L31.024021172896028,241.6718837879598L74.62991448864341,270.3742341566831Z" fill="#eebf89" stroke="#eebf89"></path><path d="M112.59216143935919,155.19080735184252L74.62991448864341,270.3742341566831L171.36015743762255,283.77032491005957Z" fill="#f1c79e" stroke="#f1c79e"></path><path d="M112.59216143935919,155.19080735184252L171.36015743762255,283.77032491005957L167.52016228996217,151.51527097821236Z" fill="#fddaaf" stroke="#fddaaf"></path><path d="M167.52016228996217,151.51527097821236L171.36015743762255,283.77032491005957L261.6560262478888,235.8421564232558Z" fill="#fee6c9" stroke="#fee6c9"></path><path d="M167.52016228996217,151.51527097821236L261.6560262478888,235.8421564232558L251.72954109683633,173.49256245419383Z" fill="#ffeed7" stroke="#ffeed7"></path><path d="M251.72954109683633,173.49256245419383L261.6560262478888,235.8421564232558L382.7629480306059,184.7231054250151Z" fill="#fcf9f6" stroke="#fcf9f6"></path><path d="M382.7629480306059,184.7231054250151L261.6560262478888,235.8421564232558L353.9438311457634,259.28853957541287Z" fill="#f5f5fa" stroke="#f5f5fa"></path><path d="M382.7629480306059,184.7231054250151L353.9438311457634,259.28853957541287L420.005005851388,296.6605592239648Z" fill="#e0dff4" stroke="#e0dff4"></path><path d="M382.7629480306059,184.7231054250151L420.005005851388,296.6605592239648L442.1743660736829,166.79408785700798Z" fill="#e5e5f1" stroke="#e5e5f1"></path><path d="M442.1743660736829,166.79408785700798L420.005005851388,296.6605592239648L557.4007814805955,288.34787667542696Z" fill="#c9c2e6" stroke="#c9c2e6"></path><path d="M442.1743660736829,166.79408785700798L557.4007814805955,288.34787667542696L566.4654972329736,156.67539418302476Z" fill="#c7c1db" stroke="#c7c1db"></path><path d="M566.4654972329736,156.67539418302476L557.4007814805955,288.34787667542696L598.689304864034,250.60808525048196Z" fill="#b3a5ce" stroke="#b3a5ce"></path><path d="M566.4654972329736,156.67539418302476L598.689304864034,250.60808525048196L596.3534184191376,164.86479003354907Z" fill="#b4a4cc" stroke="#b4a4cc"></path><path d="M596.3534184191376,164.86479003354907L598.689304864034,250.60808525048196L695.0093810074031,208.49848214909434Z" fill="#a88fc2" stroke="#a88fc2"></path><path d="M695.0093810074031,208.49848214909434L598.689304864034,250.60808525048196L713.0208984632045,351.25101808458567Z" fill="#8564b5" stroke="#8564b5"></path><path d="M695.0093810074031,208.49848214909434L713.0208984632045,351.25101808458567L755.8807211760432,282.4211040381342Z" fill="#6f5ca3" stroke="#6f5ca3"></path><path d="M695.0093810074031,208.49848214909434L755.8807211760432,282.4211040381342L837.5046806260943,237.07101271301508Z" fill="#7874a2" stroke="#7874a2"></path><path d="M695.0093810074031,208.49848214909434L837.5046806260943,237.07101271301508L842.72702296637,169.53760915249586Z" fill="#80809d" stroke="#80809d"></path><path d="M-108.15966518037021,280.1242708582431L-106.1757039707154,511.657693779096L-85.7808311227709,338.07501615956426Z" fill="#621347" stroke="#621347"></path><path d="M-108.15966518037021,280.1242708582431L-85.7808311227709,338.07501615956426L-23.89520746283233,333.7719609271735Z" fill="#8d5764" stroke="#8d5764"></path><path d="M31.024021172896028,241.6718837879598L-23.89520746283233,333.7719609271735L74.62991448864341,270.3742341566831Z" fill="#c18e7b" stroke="#c18e7b"></path><path d="M74.62991448864341,270.3742341566831L-23.89520746283233,333.7719609271735L119.24818216636777,351.8231601063162Z" fill="#b2796b" stroke="#b2796b"></path><path d="M74.62991448864341,270.3742341566831L119.24818216636777,351.8231601063162L171.36015743762255,283.77032491005957Z" fill="#ca9c8c" stroke="#ca9c8c"></path><path d="M171.36015743762255,283.77032491005957L119.24818216636777,351.8231601063162L177.60515905357897,379.5661300085485Z" fill="#bb858c" stroke="#bb858c"></path><path d="M171.36015743762255,283.77032491005957L177.60515905357897,379.5661300085485L248.69666606001556,327.01420749910176Z" fill="#c098a7" stroke="#c098a7"></path><path d="M171.36015743762255,283.77032491005957L248.69666606001556,327.01420749910176L261.6560262478888,235.8421564232558Z" fill="#dfc9cd" stroke="#dfc9cd"></path><path d="M261.6560262478888,235.8421564232558L248.69666606001556,327.01420749910176L353.9438311457634,259.28853957541287Z" fill="#e2d9ec" stroke="#e2d9ec"></path><path d="M353.9438311457634,259.28853957541287L248.69666606001556,327.01420749910176L386.69408727250993,330.82627381011844Z" fill="#c8c1e3" stroke="#c8c1e3"></path><path d="M353.9438311457634,259.28853957541287L386.69408727250993,330.82627381011844L420.005005851388,296.6605592239648Z" fill="#c3bee4" stroke="#c3bee4"></path><path d="M420.005005851388,296.6605592239648L386.69408727250993,330.82627381011844L455.42771668732166,389.9714903701097Z" fill="#a08cca" stroke="#a08cca"></path><path d="M420.005005851388,296.6605592239648L455.42771668732166,389.9714903701097L557.4007814805955,288.34787667542696Z" fill="#9a88c7" stroke="#9a88c7"></path><path d="M557.4007814805955,288.34787667542696L455.42771668732166,389.9714903701097L574.2081779614091,359.5509330164641Z" fill="#7d60b0" stroke="#7d60b0"></path><path d="M557.4007814805955,288.34787667542696L574.2081779614091,359.5509330164641L598.689304864034,250.60808525048196Z" fill="#8b77bb" stroke="#8b77bb"></path><path d="M598.689304864034,250.60808525048196L574.2081779614091,359.5509330164641L646.7713260669261,387.6325265597552Z" fill="#6e4aa4" stroke="#6e4aa4"></path><path d="M598.689304864034,250.60808525048196L646.7713260669261,387.6325265597552L713.0208984632045,351.25101808458567Z" fill="#63369b" stroke="#63369b"></path><path d="M755.8807211760432,282.4211040381342L713.0208984632045,351.25101808458567L778.263956906274,339.9059061650187Z" fill="#4a3787" stroke="#4a3787"></path><path d="M755.8807211760432,282.4211040381342L778.263956906274,339.9059061650187L837.5046806260943,237.07101271301508Z" fill="#5d5790" stroke="#5d5790"></path><path d="M837.5046806260943,237.07101271301508L778.263956906274,339.9059061650187L819.7114263027906,416.2622564379126Z" fill="#413075" stroke="#413075"></path><path d="M837.5046806260943,237.07101271301508L819.7114263027906,416.2622564379126L809.2399538978934,550.4326496589929Z" fill="#180051" stroke="#180051"></path><path d="M-85.7808311227709,338.07501615956426L-106.1757039707154,511.657693779096L-86.4411239773035,462.38780711218715Z" fill="#41132a" stroke="#41132a"></path><path d="M-85.7808311227709,338.07501615956426L-86.4411239773035,462.38780711218715L-7.766673691570759,442.99756403267384Z" fill="#581c35" stroke="#581c35"></path><path d="M-85.7808311227709,338.07501615956426L-7.766673691570759,442.99756403267384L-23.89520746283233,333.7719609271735Z" fill="#772849" stroke="#772849"></path><path d="M-23.89520746283233,333.7719609271735L-7.766673691570759,442.99756403267384L81.79946651123464,427.8411200065166Z" fill="#763140" stroke="#763140"></path><path d="M-23.89520746283233,333.7719609271735L81.79946651123464,427.8411200065166L119.24818216636777,351.8231601063162Z" fill="#944352" stroke="#944352"></path><path d="M119.24818216636777,351.8231601063162L81.79946651123464,427.8411200065166L177.60515905357897,379.5661300085485Z" fill="#995265" stroke="#995265"></path><path d="M177.60515905357897,379.5661300085485L81.79946651123464,427.8411200065166L196.59971452876925,435.82950893417Z" fill="#8e5b64" stroke="#8e5b64"></path><path d="M177.60515905357897,379.5661300085485L196.59971452876925,435.82950893417L245.14705908112228,416.25761127099395Z" fill="#916983" stroke="#916983"></path><path d="M177.60515905357897,379.5661300085485L245.14705908112228,416.25761127099395L248.69666606001556,327.01420749910176Z" fill="#a6729e" stroke="#a6729e"></path><path d="M248.69666606001556,327.01420749910176L245.14705908112228,416.25761127099395L386.69408727250993,330.82627381011844Z" fill="#ad8ec4" stroke="#ad8ec4"></path><path d="M386.69408727250993,330.82627381011844L245.14705908112228,416.25761127099395L377.81046305783093,451.59895964339375Z" fill="#8f77b5" stroke="#8f77b5"></path><path d="M386.69408727250993,330.82627381011844L377.81046305783093,451.59895964339375L455.42771668732166,389.9714903701097Z" fill="#8568b3" stroke="#8568b3"></path><path d="M455.42771668732166,389.9714903701097L377.81046305783093,451.59895964339375L442.59059876203537,484.46746893413365Z" fill="#636297" stroke="#636297"></path><path d="M455.42771668732166,389.9714903701097L442.59059876203537,484.46746893413365L514.9038322772831,437.09800344519317Z" fill="#5a5492" stroke="#5a5492"></path><path d="M455.42771668732166,389.9714903701097L514.9038322772831,437.09800344519317L574.2081779614091,359.5509330164641Z" fill="#64449b" stroke="#64449b"></path><path d="M574.2081779614091,359.5509330164641L514.9038322772831,437.09800344519317L596.5132694263011,468.69189412146807Z" fill="#473183" stroke="#473183"></path><path d="M574.2081779614091,359.5509330164641L596.5132694263011,468.69189412146807L646.7713260669261,387.6325265597552Z" fill="#441c81" stroke="#441c81"></path><path d="M646.7713260669261,387.6325265597552L596.5132694263011,468.69189412146807L694.0747210197151,415.9099553413689Z" fill="#2e086f" stroke="#2e086f"></path><path d="M646.7713260669261,387.6325265597552L694.0747210197151,415.9099553413689L713.0208984632045,351.25101808458567Z" fill="#3a0079" stroke="#3a0079"></path><path d="M713.0208984632045,351.25101808458567L694.0747210197151,415.9099553413689L778.263956906274,339.9059061650187Z" fill="#360976" stroke="#360976"></path><path d="M778.263956906274,339.9059061650187L694.0747210197151,415.9099553413689L819.7114263027906,416.2622564379126Z" fill="#200063" stroke="#200063"></path><path d="M-86.4411239773035,462.38780711218715L-106.1757039707154,511.657693779096L-1.5097434036433697,514.5738244280219Z" fill="#471b0d" stroke="#471b0d"></path><path d="M-86.4411239773035,462.38780711218715L-1.5097434036433697,514.5738244280219L-7.766673691570759,442.99756403267384Z" fill="#512418" stroke="#512418"></path><path d="M-7.766673691570759,442.99756403267384L-1.5097434036433697,514.5738244280219L81.79946651123464,427.8411200065166Z" fill="#613323" stroke="#613323"></path><path d="M81.79946651123464,427.8411200065166L-1.5097434036433697,514.5738244280219L92.47175553627312,548.3367303628474Z" fill="#6a3c15" stroke="#6a3c15"></path><path d="M81.79946651123464,427.8411200065166L92.47175553627312,548.3367303628474L170.23496711812913,518.8662611469626Z" fill="#774e29" stroke="#774e29"></path><path d="M81.79946651123464,427.8411200065166L170.23496711812913,518.8662611469626L196.59971452876925,435.82950893417Z" fill="#7e5a4d" stroke="#7e5a4d"></path><path d="M196.59971452876925,435.82950893417L170.23496711812913,518.8662611469626L296.4344773516059,528.355815589428Z" fill="#7f6d63" stroke="#7f6d63"></path><path d="M196.59971452876925,435.82950893417L296.4344773516059,528.355815589428L245.14705908112228,416.25761127099395Z" fill="#7f727f" stroke="#7f727f"></path><path d="M245.14705908112228,416.25761127099395L296.4344773516059,528.355815589428L377.81046305783093,451.59895964339375Z" fill="#7c7b96" stroke="#7c7b96"></path><path d="M377.81046305783093,451.59895964339375L296.4344773516059,528.355815589428L359.11958009563386,574.3868092261255Z" fill="#75767c" stroke="#75767c"></path><path d="M377.81046305783093,451.59895964339375L359.11958009563386,574.3868092261255L442.59059876203537,484.46746893413365Z" fill="#6b6c7f" stroke="#6b6c7f"></path><path d="M442.59059876203537,484.46746893413365L359.11958009563386,574.3868092261255L453.1500070709735,515.5599222779274Z" fill="#656471" stroke="#656471"></path><path d="M442.59059876203537,484.46746893413365L453.1500070709735,515.5599222779274L514.9038322772831,437.09800344519317Z" fill="#58547e" stroke="#58547e"></path><path d="M514.9038322772831,437.09800344519317L453.1500070709735,515.5599222779274L571.4059807956219,504.24535392969847Z" fill="#4a4570" stroke="#4a4570"></path><path d="M514.9038322772831,437.09800344519317L571.4059807956219,504.24535392969847L596.5132694263011,468.69189412146807Z" fill="#3c326c" stroke="#3c326c"></path><path d="M596.5132694263011,468.69189412146807L571.4059807956219,504.24535392969847L625.5903963278979,525.7442506123334Z" fill="#312055" stroke="#312055"></path><path d="M596.5132694263011,468.69189412146807L625.5903963278979,525.7442506123334L694.0747210197151,415.9099553413689Z" fill="#260c5a" stroke="#260c5a"></path><path d="M694.0747210197151,415.9099553413689L625.5903963278979,525.7442506123334L727.4896355643868,527.5016705710441Z" fill="#190046" stroke="#190046"></path><path d="M694.0747210197151,415.9099553413689L727.4896355643868,527.5016705710441L819.7114263027906,416.2622564379126Z" fill="#070049" stroke="#070049"></path><path d="M819.7114263027906,416.2622564379126L727.4896355643868,527.5016705710441L809.2399538978934,550.4326496589929Z" fill="#00002a" stroke="#00002a"></path><path d="M-106.1757039707154,511.657693779096L92.47175553627312,548.3367303628474L-1.5097434036433697,514.5738244280219Z" fill="#582b03" stroke="#582b03"></path><path d="M92.47175553627312,548.3367303628474L359.11958009563386,574.3868092261255L170.23496711812913,518.8662611469626Z" fill="#7f6a4d" stroke="#7f6a4d"></path><path d="M170.23496711812913,518.8662611469626L359.11958009563386,574.3868092261255L296.4344773516059,528.355815589428Z" fill="#7d766d" stroke="#7d766d"></path><path d="M359.11958009563386,574.3868092261255L809.2399538978934,550.4326496589929L625.5903963278979,525.7442506123334Z" fill="#31204a" stroke="#31204a"></path><path d="M359.11958009563386,574.3868092261255L625.5903963278979,525.7442506123334L453.1500070709735,515.5599222779274Z" fill="#555166" stroke="#555166"></path><path d="M453.1500070709735,515.5599222779274L625.5903963278979,525.7442506123334L571.4059807956219,504.24535392969847Z" fill="#3f3759" stroke="#3f3759"></path><path d="M625.5903963278979,525.7442506123334L809.2399538978934,550.4326496589929L727.4896355643868,527.5016705710441Z" fill="#0e002d" stroke="#0e002d"></path></g></svg>